<?xml version="1.0" standalone="no"?>
<!DOCTYPE svg PUBLIC "-//W3C//DTD SVG 20010904//EN"
 "http://www.w3.org/TR/2001/REC-SVG-20010904/DTD/svg10.dtd">
<svg version="1.0" xmlns="http://www.w3.org/2000/svg"
 width="200.000000pt" height="200.000000pt" viewBox="0 0 200.000000 200.000000"
 preserveAspectRatio="xMidYMid meet">

<g transform="translate(0.000000,200.000000) scale(0.100000,-0.100000)"
fill="#000000" stroke="none">
<path d="M0 1000 l0 -1000 1000 0 1000 0 0 1000 0 1000 -1000 0 -1000 0 0
-1000z m1202 667 c-2 -13 5 -17 29 -17 27 0 30 -2 19 -15 -9 -11 -9 -15 -1
-15 19 0 61 -48 61 -70 0 -25 -17 -27 -23 -2 -3 10 -5 5 -6 -12 -1 -25 2 -28
24 -24 25 5 34 -5 14 -17 -6 -4 -8 -13 -5 -21 3 -8 0 -17 -7 -20 -8 -3 -11
-20 -9 -50 3 -33 -1 -50 -14 -65 -13 -15 -19 -16 -26 -7 -5 9 -8 6 -8 -9 0
-16 6 -23 19 -23 10 0 29 -9 42 -19 20 -17 22 -22 10 -33 -10 -9 -12 -9 -7 0
4 7 1 12 -8 12 -9 0 -16 -6 -17 -12 0 -10 -2 -10 -6 0 -7 17 -24 14 -52 -9
l-24 -20 33 -34 c19 -20 49 -39 68 -45 45 -12 98 -49 111 -77 6 -13 15 -23 20
-23 21 0 65 22 94 46 41 35 85 30 112 -13 24 -38 38 -41 59 -11 l16 22 0 -24
c0 -30 -9 -44 -36 -58 -12 -6 -24 -22 -26 -36 -4 -19 0 -26 19 -30 12 -4 23
-11 23 -17 0 -6 -5 -7 -12 -3 -7 4 -8 3 -4 -5 4 -6 3 -18 -4 -26 -8 -10 -8
-15 0 -20 6 -4 9 -13 6 -21 -3 -9 1 -14 13 -14 10 0 27 -12 36 -27 10 -16 12
-22 4 -16 -7 7 -24 13 -38 13 -25 -1 -24 -2 7 -15 21 -9 32 -21 32 -35 0 -23
-10 -26 -29 -7 -10 10 -11 8 -5 -6 3 -10 3 -17 -2 -15 -5 1 -27 -1 -49 -5 -36
-6 -44 -13 -75 -68 -67 -119 -204 -237 -339 -294 -336 -141 -736 3 -906 327
-56 106 -76 178 -82 304 -7 142 12 235 75 364 38 80 60 109 132 180 76 76 157
135 215 156 10 4 -7 -19 -40 -52 -108 -109 -164 -217 -192 -369 -32 -179 17
-367 135 -513 67 -84 132 -136 228 -183 144 -70 357 -91 405 -41 10 12 19 25
19 29 0 4 15 20 33 34 18 14 45 49 60 77 l28 51 -34 31 c-19 17 -47 56 -63 88
-16 31 -35 62 -42 67 -7 6 -16 23 -20 40 -7 25 -15 31 -51 37 -73 12 -131 61
-175 146 -9 18 -25 36 -34 39 -9 3 -44 32 -78 65 l-60 59 -23 -25 c-15 -16
-25 -42 -29 -78 -5 -39 -12 -54 -24 -56 -29 -6 -34 44 -9 95 12 25 20 47 18
50 -11 10 -76 -35 -85 -59 -12 -32 -52 -40 -52 -10 1 33 63 88 124 111 33 12
66 31 73 41 20 29 39 25 92 -20 26 -22 50 -40 54 -40 4 0 18 22 32 50 17 34
21 48 11 44 -20 -8 -56 31 -56 60 0 13 6 29 14 35 16 14 41 105 37 137 -3 27
50 54 106 54 21 0 44 4 51 9 22 14 77 -3 74 -22z"/>
<path d="M1405 904 l-30 -55 24 -42 c40 -69 43 -104 16 -157 -42 -81 -41 -85
13 -55 65 36 133 95 109 95 -30 0 -97 39 -99 58 -1 21 0 33 11 96 9 53 4 89
-11 80 -6 -4 -8 2 -3 15 11 35 2 24 -30 -35z"/>
<path d="M1632 898 c3 -7 13 -15 22 -16 12 -3 17 1 14 10 -3 7 -13 15 -22 16
-12 3 -17 -1 -14 -10z"/>
<path d="M1633 839 c2 -24 23 -25 36 -1 7 14 5 17 -14 18 -17 1 -23 -3 -22
-17z"/>
<path d="M1327 611 c-20 -28 -37 -53 -37 -57 0 -4 -8 -13 -17 -20 -15 -12 -12
-12 22 0 34 11 42 20 58 61 25 68 17 73 -26 16z"/>
</g>
</svg>
